<svg xmlns="http://www.w3.org/2000/svg" xmlns:xlink="http://www.w3.org/1999/xlink" id="processonSvg1000" viewBox="184.0 79.0 895.0 490.25" width="895.0" height="490.25"><defs id="ProcessOnDefs1001"><marker id="ProcessOnMarker1041" markerUnits="userSpaceOnUse" orient="auto" markerWidth="16.23606797749979" markerHeight="10.550836550532098" viewBox="-1.0 -1.3763819204711736 16.23606797749979 10.550836550532098" refX="-1.0" refY="3.8990363547948754"><path id="ProcessOnPath1042" d="M12.0 3.8990363547948754L0.0 7.798072709589751V0.0Z" stroke="#323232" stroke-width="2.0" fill="#323232" transform="matrix(1.0,0.0,0.0,1.0,0.0,0.0)"/></marker><marker id="ProcessOnMarker1045" markerUnits="userSpaceOnUse" orient="auto" markerWidth="16.23606797749979" markerHeight="10.550836550532098" viewBox="-1.0 -1.3763819204711736 16.23606797749979 10.550836550532098" refX="-1.0" refY="3.8990363547948754"><path id="ProcessOnPath1046" d="M12.0 3.8990363547948754L0.0 7.798072709589751V0.0Z" stroke="#323232" stroke-width="2.0" fill="#323232" transform="matrix(1.0,0.0,0.0,1.0,0.0,0.0)"/></marker><marker id="ProcessOnMarker1049" markerUnits="userSpaceOnUse" orient="auto" markerWidth="16.23606797749979" markerHeight="10.550836550532098" viewBox="-1.0 -1.3763819204711736 16.23606797749979 10.550836550532098" refX="-1.0" refY="3.8990363547948754"><path id="ProcessOnPath1050" d="M12.0 3.8990363547948754L0.0 7.798072709589751V0.0Z" stroke="#323232" stroke-width="2.0" fill="#323232" transform="matrix(1.0,0.0,0.0,1.0,0.0,0.0)"/></marker><marker id="ProcessOnMarker1053" markerUnits="userSpaceOnUse" orient="auto" markerWidth="16.23606797749979" markerHeight="10.550836550532098" viewBox="-1.0 -1.3763819204711736 16.23606797749979 10.550836550532098" refX="-1.0" refY="3.8990363547948754"><path id="ProcessOnPath1054" d="M12.0 3.8990363547948754L0.0 7.798072709589751V0.0Z" stroke="#323232" stroke-width="2.0" fill="#323232" transform="matrix(1.0,0.0,0.0,1.0,0.0,0.0)"/></marker><marker id="ProcessOnMarker1057" markerUnits="userSpaceOnUse" orient="auto" markerWidth="16.23606797749979" markerHeight="10.550836550532098" viewBox="-1.0 -1.3763819204711736 16.23606797749979 10.550836550532098" refX="-1.0" refY="3.8990363547948754"><path id="ProcessOnPath1058" d="M12.0 3.8990363547948754L0.0 7.798072709589751V0.0Z" stroke="#323232" stroke-width="2.0" fill="#323232" transform="matrix(1.0,0.0,0.0,1.0,0.0,0.0)"/></marker><marker id="ProcessOnMarker1061" markerUnits="userSpaceOnUse" orient="auto" markerWidth="16.23606797749979" markerHeight="10.550836550532098" viewBox="-1.0 -1.3763819204711736 16.23606797749979 10.550836550532098" refX="15.23606797749979" refY="3.8990363547948754"><path id="ProcessOnPath1062" d="M12.0 3.8990363547948754L0.0 7.798072709589751V0.0Z" stroke="#323232" stroke-width="2.0" fill="#323232" transform="matrix(-1.0,1.2246467991473532E-16,-1.2246467991473532E-16,-1.0,14.23606797749979,7.798072709589751)"/></marker><marker id="ProcessOnMarker1065" markerUnits="userSpaceOnUse" orient="auto" markerWidth="16.23606797749979" markerHeight="10.550836550532098" viewBox="-1.0 -1.3763819204711736 16.23606797749979 10.550836550532098" refX="-1.0" refY="3.8990363547948754"><path id="ProcessOnPath1066" d="M12.0 3.8990363547948754L0.0 7.798072709589751V0.0Z" stroke="#323232" stroke-width="2.0" fill="#323232" transform="matrix(1.0,0.0,0.0,1.0,0.0,0.0)"/></marker><marker id="ProcessOnMarker1069" markerUnits="userSpaceOnUse" orient="auto" markerWidth="16.23606797749979" markerHeight="10.550836550532098" viewBox="-1.0 -1.3763819204711736 16.23606797749979 10.550836550532098" refX="-1.0" refY="3.8990363547948754"><path id="ProcessOnPath1070" d="M12.0 3.8990363547948754L0.0 7.798072709589751V0.0Z" stroke="#323232" stroke-width="2.0" fill="#323232" transform="matrix(1.0,0.0,0.0,1.0,0.0,0.0)"/></marker><marker id="ProcessOnMarker1073" markerUnits="userSpaceOnUse" orient="auto" markerWidth="16.23606797749979" markerHeight="10.550836550532098" viewBox="-1.0 -1.3763819204711736 16.23606797749979 10.550836550532098" refX="-1.0" refY="3.8990363547948754"><path id="ProcessOnPath1074" d="M12.0 3.8990363547948754L0.0 7.798072709589751V0.0Z" stroke="#323232" stroke-width="2.0" fill="#323232" transform="matrix(1.0,0.0,0.0,1.0,0.0,0.0)"/></marker><marker id="ProcessOnMarker1077" markerUnits="userSpaceOnUse" orient="auto" markerWidth="16.23606797749979" markerHeight="10.550836550532098" viewBox="-1.0 -1.3763819204711736 16.23606797749979 10.550836550532098" refX="-1.0" refY="3.8990363547948754"><path id="ProcessOnPath1078" d="M12.0 3.8990363547948754L0.0 7.798072709589751V0.0Z" stroke="#323232" stroke-width="2.0" fill="#323232" transform="matrix(1.0,0.0,0.0,1.0,0.0,0.0)"/></marker></defs><g id="ProcessOnG1002"><path id="ProcessOnPath1003" d="M184.0 79.0H1079.0V569.25H184.0V79.0Z" fill="none"/><g id="ProcessOnG1004"><g id="ProcessOnG1005" transform="matrix(1.0,0.0,0.0,1.0,224.0,252.0)" opacity="1.0"><path id="ProcessOnPath1006" d="M23.333333333333332 12.5C23.333333333333332 -4.166666666666666 46.666666666666664 -4.166666666666666 46.666666666666664 12.5C46.666666666666664 29.166666666666668 23.333333333333332 29.166666666666668 23.333333333333332 12.5M35.0 25.0L35.0 75.0M35.0 75.0L5.833333333333333 100.0M35.0 75.0L64.16666666666666 100.0M0.0 50.0L70.0 50.0" stroke="#323232" stroke-width="2.0" stroke-dasharray="none" opacity="1.0" fill="#ffffff"/><path id="ProcessOnPath1007" d="M0.0 0.0L70.0 0.0L70.0 100.0L0.0 100.0Z" stroke="#323232" stroke-width="0.0" stroke-dasharray="none" opacity="1.0" fill="none"/><g id="ProcessOnG1008" transform="matrix(1.0,0.0,0.0,1.0,-20.0,98.75)"><text id="ProcessOnText1009" fill="#000000" font-weight="normal" font-style="normal" text-decoration="blink" font-family="微软雅黑" text-anchor="middle" font-size="13" x="55.0" y="13.325">产品经理</text><text id="ProcessOnText1010" fill="#000000" font-weight="normal" font-style="normal" text-decoration="blink" font-family="微软雅黑" text-anchor="middle" font-size="13" x="55.0" y="29.575">（PM/PD）</text></g></g><g id="ProcessOnG1011" transform="matrix(1.0,0.0,0.0,1.0,479.0,99.0)" opacity="1.0"><path id="ProcessOnPath1012" d="M23.333333333333332 12.5C23.333333333333332 -4.166666666666666 46.666666666666664 -4.166666666666666 46.666666666666664 12.5C46.666666666666664 29.166666666666668 23.333333333333332 29.166666666666668 23.333333333333332 12.5M35.0 25.0L35.0 75.0M35.0 75.0L5.833333333333333 100.0M35.0 75.0L64.16666666666666 100.0M0.0 50.0L70.0 50.0" stroke="#323232" stroke-width="2.0" stroke-dasharray="none" opacity="1.0" fill="#ffffff"/><path id="ProcessOnPath1013" d="M0.0 0.0L70.0 0.0L70.0 100.0L0.0 100.0Z" stroke="#323232" stroke-width="0.0" stroke-dasharray="none" opacity="1.0" fill="none"/><g id="ProcessOnG1014" transform="matrix(1.0,0.0,0.0,1.0,-20.0,98.75)"><text id="ProcessOnText1015" fill="#000000" font-weight="normal" font-style="normal" text-decoration="blink" font-family="微软雅黑" text-anchor="middle" font-size="13" x="55.0" y="13.325">视觉/交互设计</text><text id="ProcessOnText1016" fill="#000000" font-weight="normal" font-style="normal" text-decoration="blink" font-family="微软雅黑" text-anchor="middle" font-size="13" x="55.0" y="29.575">（UE）</text></g></g><g id="ProcessOnG1017" transform="matrix(1.0,0.0,0.0,1.0,479.0,252.0)" opacity="1.0"><path id="ProcessOnPath1018" d="M23.333333333333332 12.5C23.333333333333332 -4.166666666666666 46.666666666666664 -4.166666666666666 46.666666666666664 12.5C46.666666666666664 29.166666666666668 23.333333333333332 29.166666666666668 23.333333333333332 12.5M35.0 25.0L35.0 75.0M35.0 75.0L5.833333333333333 100.0M35.0 75.0L64.16666666666666 100.0M0.0 50.0L70.0 50.0" stroke="#323232" stroke-width="2.0" stroke-dasharray="none" opacity="1.0" fill="#ffffff"/><path id="ProcessOnPath1019" d="M0.0 0.0L70.0 0.0L70.0 100.0L0.0 100.0Z" stroke="#323232" stroke-width="0.0" stroke-dasharray="none" opacity="1.0" fill="none"/><g id="ProcessOnG1020" transform="matrix(1.0,0.0,0.0,1.0,-20.0,98.75)"><text id="ProcessOnText1021" fill="#000000" font-weight="normal" font-style="normal" text-decoration="blink" font-family="微软雅黑" text-anchor="middle" font-size="13" x="55.0" y="13.325">前端开发人员</text><text id="ProcessOnText1022" fill="#000000" font-weight="normal" font-style="normal" text-decoration="blink" font-family="微软雅黑" text-anchor="middle" font-size="13" x="55.0" y="29.575">（FE）</text></g></g><g id="ProcessOnG1023" transform="matrix(1.0,0.0,0.0,1.0,479.0,418.0)" opacity="1.0"><path id="ProcessOnPath1024" d="M23.333333333333332 12.5C23.333333333333332 -4.166666666666666 46.666666666666664 -4.166666666666666 46.666666666666664 12.5C46.666666666666664 29.166666666666668 23.333333333333332 29.166666666666668 23.333333333333332 12.5M35.0 25.0L35.0 75.0M35.0 75.0L5.833333333333333 100.0M35.0 75.0L64.16666666666666 100.0M0.0 50.0L70.0 50.0" stroke="#323232" stroke-width="2.0" stroke-dasharray="none" opacity="1.0" fill="#ffffff"/><path id="ProcessOnPath1025" d="M0.0 0.0L70.0 0.0L70.0 100.0L0.0 100.0Z" stroke="#323232" stroke-width="0.0" stroke-dasharray="none" opacity="1.0" fill="none"/><g id="ProcessOnG1026" transform="matrix(1.0,0.0,0.0,1.0,-20.0,98.75)"><text id="ProcessOnText1027" fill="#000000" font-weight="normal" font-style="normal" text-decoration="blink" font-family="微软雅黑" text-anchor="middle" font-size="13" x="55.0" y="13.325">后端开发人员</text><text id="ProcessOnText1028" fill="#000000" font-weight="normal" font-style="normal" text-decoration="blink" font-family="微软雅黑" text-anchor="middle" font-size="13" x="55.0" y="29.575">（RD）</text></g></g><g id="ProcessOnG1029" transform="matrix(1.0,0.0,0.0,1.0,762.0,252.0)" opacity="1.0"><path id="ProcessOnPath1030" d="M23.333333333333332 12.5C23.333333333333332 -4.166666666666666 46.666666666666664 -4.166666666666666 46.666666666666664 12.5C46.666666666666664 29.166666666666668 23.333333333333332 29.166666666666668 23.333333333333332 12.5M35.0 25.0L35.0 75.0M35.0 75.0L5.833333333333333 100.0M35.0 75.0L64.16666666666666 100.0M0.0 50.0L70.0 50.0" stroke="#323232" stroke-width="2.0" stroke-dasharray="none" opacity="1.0" fill="#ffffff"/><path id="ProcessOnPath1031" d="M0.0 0.0L70.0 0.0L70.0 100.0L0.0 100.0Z" stroke="#323232" stroke-width="0.0" stroke-dasharray="none" opacity="1.0" fill="none"/><g id="ProcessOnG1032" transform="matrix(1.0,0.0,0.0,1.0,-20.0,106.875)"><text id="ProcessOnText1033" fill="#000000" font-weight="normal" font-style="normal" text-decoration="blink" font-family="微软雅黑" text-anchor="middle" font-size="13" x="55.0" y="13.325">测试人员（QA）</text></g></g><g id="ProcessOnG1034" transform="matrix(1.0,0.0,0.0,1.0,969.0,252.0)" opacity="1.0"><path id="ProcessOnPath1035" d="M23.333333333333332 12.5C23.333333333333332 -4.166666666666666 46.666666666666664 -4.166666666666666 46.666666666666664 12.5C46.666666666666664 29.166666666666668 23.333333333333332 29.166666666666668 23.333333333333332 12.5M35.0 25.0L35.0 75.0M35.0 75.0L5.833333333333333 100.0M35.0 75.0L64.16666666666666 100.0M0.0 50.0L70.0 50.0" stroke="#323232" stroke-width="2.0" stroke-dasharray="none" opacity="1.0" fill="#ffffff"/><path id="ProcessOnPath1036" d="M0.0 0.0L70.0 0.0L70.0 100.0L0.0 100.0Z" stroke="#323232" stroke-width="0.0" stroke-dasharray="none" opacity="1.0" fill="none"/><g id="ProcessOnG1037" transform="matrix(1.0,0.0,0.0,1.0,-20.0,106.875)"><text id="ProcessOnText1038" fill="#000000" font-weight="normal" font-style="normal" text-decoration="blink" font-family="微软雅黑" text-anchor="middle" font-size="13" x="55.0" y="13.325">运维人员（OP）</text></g></g><g id="ProcessOnG1039"><path id="ProcessOnPath1040" d="M294.0 302.0C390.02832915343265 302.0 382.97167084656735 149.0 463.7639320225002 149.0" stroke="#323232" stroke-width="2.0" stroke-dasharray="none" fill="none" marker-end="url(#ProcessOnMarker1041)"/></g><g id="ProcessOnG1043"><path id="ProcessOnPath1044" d="M294.0 302.0C393.4231361404377 302.0 379.5768638595623 468.0 463.7639320225002 468.0" stroke="#323232" stroke-width="2.0" stroke-dasharray="none" fill="none" marker-end="url(#ProcessOnMarker1045)"/></g><g id="ProcessOnG1047"><path id="ProcessOnPath1048" d="M294.0 302.0C368.0 302.0 405.0 302.0 463.7639320225002 302.0" stroke="#323232" stroke-width="2.0" stroke-dasharray="none" fill="none" marker-end="url(#ProcessOnMarker1049)"/></g><g id="ProcessOnG1051"><path id="ProcessOnPath1052" d="M479.0 149.0C417.8 149.0 417.8 302.0 463.7639320225002 302.0" stroke="#323232" stroke-width="2.0" stroke-dasharray="none" fill="none" marker-end="url(#ProcessOnMarker1053)"/></g><g id="ProcessOnG1055"><path id="ProcessOnPath1056" d="M479.0 302.0C412.6 302.0 412.6 468.0 463.7639320225002 468.0" stroke="#323232" stroke-width="2.0" stroke-dasharray="none" fill="none" marker-end="url(#ProcessOnMarker1057)"/></g><g id="ProcessOnG1059"><path id="ProcessOnPath1060" d="M564.2360679774998 149.0C610.2 149.0 610.2 302.0 549.0 302.0" stroke="#323232" stroke-width="2.0" stroke-dasharray="none" fill="none" marker-start="url(#ProcessOnMarker1061)"/></g><g id="ProcessOnG1063"><path id="ProcessOnPath1064" d="M549.0 302.0C615.4 302.0 615.4 468.0 564.2360679774998 468.0" stroke="#323232" stroke-width="2.0" stroke-dasharray="none" fill="none" marker-end="url(#ProcessOnMarker1065)"/></g><g id="ProcessOnG1067"><path id="ProcessOnPath1068" d="M549.0 302.0C634.2 302.0 676.8 302.0 746.7639320225002 302.0" stroke="#323232" stroke-width="2.0" stroke-dasharray="none" fill="none" marker-end="url(#ProcessOnMarker1069)"/></g><g id="ProcessOnG1071"><path id="ProcessOnPath1072" d="M549.0 468.0C657.0185169311262 468.0 653.9814830688738 302.0 746.7639320225002 302.0" stroke="#323232" stroke-width="2.0" stroke-dasharray="none" fill="none" marker-end="url(#ProcessOnMarker1073)"/></g><g id="ProcessOnG1075"><path id="ProcessOnPath1076" d="M832.0 302.0C886.8 302.0 914.2 302.0 953.7639320225002 302.0" stroke="#323232" stroke-width="2.0" stroke-dasharray="none" fill="none" marker-end="url(#ProcessOnMarker1077)"/></g></g></g></svg>